<svg width="70" height="70" viewBox="0 0 70 70" fill="none" xmlns="http://www.w3.org/2000/svg">
<path d="M0 0H70V70H0V0Z" fill="#574D9C"/>
<g clip-path="url(#clip0_1416_4)">
<path d="M34.9629 14.748L22.2491 24.4423L17.2695 28.2353V55.2521H52.688V28.2564L34.9629 14.748ZM47.6767 50.2725H37.7705V41.4258H32.2294V50.2725H22.2491V31.4031L34.9629 21.6982L47.6767 31.4031V50.2725Z" fill="white"/>
<path d="M47.4865 40.8854H22.5039V50.2618H47.4865V40.8854Z" fill="#574D9C"/>
<path d="M35.4523 38.491C32.846 37.8129 31.956 37.0818 31.956 36.0224C31.956 34.751 33.1426 33.9034 35.1345 33.9034C37.1263 33.9034 37.9845 34.8993 38.0586 36.3508H40.6332C40.6055 35.2964 40.2203 34.2828 39.5407 33.4762C38.8611 32.6695 37.9276 32.1178 36.8932 31.9116V29.2841H33.3545V31.7844C31.0978 32.2718 29.2755 33.7445 29.2755 36.0224C29.2755 38.7135 31.5004 40.059 34.753 40.843C37.6772 41.5423 38.2599 42.5594 38.2599 43.6506C38.2599 44.4558 37.6878 45.7696 35.0815 45.7696C32.6871 45.7696 31.7441 44.7101 31.617 43.3222H29.0742C29.212 45.8756 31.119 47.3059 33.3121 47.7826V54.8917H36.819V47.7614C39.0863 47.3376 40.898 46.0133 40.898 43.6294C40.9404 40.3133 38.1434 39.2008 35.4523 38.491Z" fill="white" stroke="white" stroke-width="0.5" stroke-miterlimit="10"/>
</g>
<defs>
<clipPath id="clip0_1416_4">
<rect width="36" height="42" fill="white" transform="translate(17 14)"/>
</clipPath>
</defs>
</svg>
